<?xml version="1.0" encoding="UTF-8" standalone="no"?>
<svg
   sodipodi:docname="index.svg"
   inkscape:version="1.1 (c68e22c387, 2021-05-23)"
   id="svg8"
   version="1.1"
   viewBox="0 0 135.46667 135.46667"
   height="512"
   width="512"
   xmlns:inkscape="http://www.inkscape.org/namespaces/inkscape"
   xmlns:sodipodi="http://sodipodi.sourceforge.net/DTD/sodipodi-0.dtd"
   xmlns="http://www.w3.org/2000/svg"
   xmlns:svg="http://www.w3.org/2000/svg"
   xmlns:rdf="http://www.w3.org/1999/02/22-rdf-syntax-ns#"
   xmlns:cc="http://creativecommons.org/ns#"
   xmlns:dc="http://purl.org/dc/elements/1.1/">
  <defs
     id="defs2" />
  <sodipodi:namedview
     inkscape:window-maximized="1"
     inkscape:window-y="-11"
     inkscape:window-x="2130"
     inkscape:window-height="1046"
     inkscape:window-width="1819"
     units="px"
     showgrid="false"
     inkscape:document-rotation="0"
     inkscape:current-layer="layer1"
     inkscape:document-units="px"
     inkscape:cy="125"
     inkscape:cx="-176.5625"
     inkscape:zoom="0.32"
     inkscape:pageshadow="2"
     inkscape:pageopacity="0.0"
     borderopacity="1.0"
     bordercolor="#666666"
     pagecolor="#ffffff"
     id="base"
     inkscape:pagecheckerboard="1">
    <inkscape:grid
       id="grid1026"
       type="xygrid" />
  </sodipodi:namedview>
  <metadata
     id="metadata5">
    <rdf:RDF>
      <cc:Work
         rdf:about="">
        <dc:format>image/svg+xml</dc:format>
        <dc:type
           rdf:resource="http://purl.org/dc/dcmitype/StillImage" />
      </cc:Work>
    </rdf:RDF>
  </metadata>
  <g
     id="layer1"
     inkscape:groupmode="layer"
     inkscape:label="Layer 1">
    <g
       id="g2192"
       inkscape:export-filename="D:\Project\ada-ikan-webapp\views\client\static\logo\index.png"
       inkscape:export-xdpi="96"
       inkscape:export-ydpi="96">
      <rect
         inkscape:export-ydpi="300"
         inkscape:export-xdpi="300"
         ry="43.810715"
         y="-2.1326714e-07"
         x="-2.2977514e-07"
         height="135.46667"
         width="135.46667"
         id="rect1028"
         style="fill:#ffffff;fill-opacity:1;fill-rule:evenodd;stroke:none;stroke-width:1.32292;stroke-linecap:round;stroke-linejoin:round;paint-order:stroke fill markers" />
      <path
         inkscape:export-ydpi="300"
         inkscape:export-xdpi="300"
         id="path888"
         fill="#00efd1"
         d="M 93.674093,43.353456 H 110.6097 v 65.409714 c 0.002,5.26277 -4.26531,9.52994 -9.52808,9.52808 H 50.10639 c -5.262776,0.002 -9.529011,-4.26531 -9.528081,-9.52808 V 43.353456 Z m 0,0"
         style="fill:#e6e6e6;stroke-width:0.593611" />
      <path
         inkscape:export-ydpi="300"
         inkscape:export-xdpi="300"
         id="path890"
         fill="#00acea"
         d="M 50.10639,118.29125 H 34.385057 c -5.262775,0.002 -9.52901,-4.26531 -9.52808,-9.52808 V 43.353456 l 2.930071,1.762324 c 3.039867,1.833969 6.845516,1.833969 9.885383,0 l 2.930071,-1.762324 v 65.409714 c -0.01024,2.52624 0.987235,4.95199 2.770959,6.74037 1.783723,1.78837 4.207616,2.79236 6.732929,2.78771 z m 0,0"
         style="fill:#cccccc;stroke-width:0.593611" />
      <path
         inkscape:export-ydpi="300"
         inkscape:export-xdpi="300"
         sodipodi:nodetypes="ccccccccccccccccccccccccccccccccccccccccccccccccccccccccscssscccscsssccc"
         id="path892"
         fill="#083863"
         d="M 110.6097,40.971436 H 96.031921 v -6.383999 c 0.0046,-10.921003 -8.849764,-19.775418 -19.770766,-19.770766 -2.019133,0 -4.027102,0.305196 -5.95505,0.905354 -1.927947,-0.600158 -3.935916,-0.905354 -5.95505,-0.905354 -10.904256,0.0121 -19.744713,8.842319 -19.770766,19.746574 v 6.384 l -3.284805,0.0167 c -1.138585,0.115548 -1.745511,0.289139 -2.604449,0.785048 l -2.011331,1.127549 c -2.275946,1.381757 -5.448961,1.5488 -7.724907,0.167043 l -2.858424,-1.73906 c -0.734146,-0.449421 -1.653457,-0.468961 -2.404352,-0.04839 -0.750894,0.419645 -1.216132,1.212412 -1.217063,2.073103 v 65.410652 c 0.0028,6.5766 5.333492,11.9073 11.9101,11.9101 h 66.696562 c 6.57754,-0.003 11.90823,-5.3335 11.9101,-11.9101 V 43.353456 c -0.004,-1.313831 -1.06726,-2.378297 -2.38202,-2.38202 z M 91.267881,34.587437 v 6.383999 h -7.14606 v -6.383999 c 0.0186,-5.246957 -2.066588,-10.283627 -5.788494,-13.982271 -0.339624,-0.344277 -0.697858,-0.669943 -1.071909,-0.977001 3.624205,0.23448 7.038123,1.784654 9.599726,4.359283 2.842605,2.79143 4.432789,6.615688 4.406737,10.599989 z m -29.965997,6.383999 v -6.383999 c 0.01396,-5.980173 3.567446,-11.384381 9.051676,-13.768262 1.734408,0.754617 3.309705,1.829317 4.644939,3.168273 2.819342,2.805387 4.39743,6.623132 4.383474,10.599989 v 6.383999 z m -11.9101,-6.383999 c 0.0065,-7.895094 6.129049,-14.434483 14.006463,-14.959272 -4.35463,3.750751 -6.859474,9.212649 -6.860403,14.959272 v 6.383999 h -7.14606 z M 27.238997,108.76317 V 47.545254 c 3.434389,1.786515 7.523834,1.786515 10.957292,0 v 61.217916 c -0.0019,2.57742 0.833707,5.08598 2.38202,7.14606 h -6.193252 c -3.941499,-0.0112 -7.133964,-3.20363 -7.14606,-7.14606 z m 80.988683,0 c -0.0112,3.94243 -3.20363,7.13489 -7.14606,7.14606 H 50.10639 c -3.9415,-0.0112 -7.133965,-3.20363 -7.146061,-7.14606 V 45.735476 h 3.644677 c 0.133989,0.02046 0.269838,0.02792 0.404758,0.02327 0.143293,0 0.262394,-0.02327 0.405686,-0.02327 h 9.122394 v 9.470575 c 0,1.315692 1.067257,2.38202 2.38202,2.38202 1.315692,0 2.38202,-1.066328 2.38202,-2.38202 v -9.470575 h 20.057351 c 0.133989,0.02046 0.268909,0.02792 0.404758,0.02327 0.142364,0 0.261465,-0.02327 0.404758,-0.02327 h 9.123322 v 9.470575 c 0,1.315692 1.066325,2.38202 2.38202,2.38202 1.315694,0 2.38202,-1.066328 2.38202,-2.38202 v -9.470575 h 12.171567 z"
         style="stroke-width:0.593611;fill:#0d2c47;fill-opacity:1" />
      <path
         inkscape:export-ydpi="300"
         inkscape:export-xdpi="300"
         d="m 100.72085,81.478028 -0.7025,0.468705 a 9.3423396,9.3423396 0 0 0 -4.135634,8.426771 l -9.08143,-10.63542 z"
         style="fill:#e6e6e6;stroke-width:0.264583"
         id="path954" />
      <path
         inkscape:export-ydpi="300"
         inkscape:export-xdpi="300"
         d="m 88.541234,91.047726 -0.73404,7.100066 -0.881935,8.523548 -11.832709,0.0283 h -0.02067 a 7.4090492,7.4090492 0 0 1 -5.238322,-2.17058 7.4136797,7.4136797 0 0 0 -5.242673,-2.17165 h -1.27886 l -6.959782,10.43967 A 28.014595,28.014595 0 0 0 50.301584,91.095568 l -0.03915,-0.04784 11.309645,6.08981 z"
         style="fill:#2b7cd4;stroke-width:0.264583"
         id="path956" />
      <polygon
         inkscape:export-ydpi="300"
         inkscape:export-xdpi="300"
         transform="matrix(0.10874658,0,0,0.10874658,47.652517,59.728711)"
         points="160,392 184,456 256,432 208,392 "
         style="fill:#cccccc;stroke-width:2.43302"
         id="polygon958" />
      <path
         inkscape:export-ydpi="300"
         inkscape:export-xdpi="300"
         d="m 97.240958,95.490025 v 0.865633 a 10.314307,10.314307 0 0 1 -15.424624,8.960712 l -8.186433,-4.66849 A 39.302147,39.302147 0 0 1 59.909345,87.567838 Q 59.364531,86.711456 58.865378,85.82789 A 39.310269,39.310269 0 0 1 53.782562,67.303989 c -0.0076,-0.295791 -0.0098,-0.592669 -0.0098,-0.88954 l 0.0011,-0.885197 0.0043,-3.154738 3.329821,0.0044 a 39.329237,39.329237 0 0 1 21.863497,6.669428 q 0.872691,0.585616 1.714934,1.217962 a 39.303414,39.303414 0 0 1 10.535372,11.946898 l 4.660878,8.160346 a 10.311226,10.311226 0 0 1 1.358242,5.116525 z"
         style="fill:#3ea7ff;stroke-width:0.264583"
         id="path960" />
      <path
         inkscape:export-ydpi="300"
         inkscape:export-xdpi="300"
         d="m 87.807194,98.147792 -0.881935,8.523548 -11.832709,0.0283 h -0.02067 a 7.4090492,7.4090492 0 0 1 -5.238322,-2.17058 7.4136797,7.4136797 0 0 0 -5.242673,-2.17165 h -1.27886 v -1.92156 z"
         style="fill:#e6e6e6;stroke-width:0.264583"
         id="path962" />
      <path
         inkscape:export-ydpi="300"
         inkscape:export-xdpi="300"
         d="m 86.925259,106.67134 h -0.138108 a 22.036665,22.036665 0 0 1 -8.467009,-1.68991 l -0.945,-0.39367 A 21.99195,21.99195 0 0 1 70.223965,99.789867 L 86.06725,98.309825 Z"
         style="fill:#e6e6e6;stroke-width:0.264583"
         id="path964" />
      <path
         inkscape:export-ydpi="300"
         inkscape:export-xdpi="300"
         sodipodi:nodetypes="cccccccccssccccsc"
         d="m 94.21998,103.65037 c -3.28682,3.28679 -8.366024,3.96901 -12.403642,1.666 l -8.186437,-4.66849 C 68.057672,97.472646 63.347145,92.982021 59.909345,87.567838 59.546136,86.996916 59.198147,86.416934 58.865378,85.82789 55.665374,80.168573 53.918967,73.803936 53.782562,67.303989 c -0.0076,-0.295791 -0.0098,-0.592669 -0.0098,-0.88954 l 0.0011,-0.885197 0.0043,-3.154738 c 0,0 0.422946,0.765637 0.785922,0.91953 2.765052,1.172318 7.812181,4.780963 11.24462,7.481208 2.045121,1.608864 3.413709,2.830754 5.306917,4.545548 0.450211,0.378438 0.896799,0.761952 1.339765,1.150538 1.061367,0.92761 2.102072,1.877695 3.122115,2.850249 0.421924,0.40346 0.840597,0.80981 1.256021,1.219057 6.89535,6.810731 12.753296,14.597017 17.386406,23.109726 z"
         style="fill:#e6e6e6;stroke-width:0.264583"
         id="path966" />
      <circle
         inkscape:export-ydpi="300"
         inkscape:export-xdpi="300"
         cx="64.616982"
         cy="67.993454"
         r="1.3049589"
         style="fill:#808080;stroke-width:0.264583"
         id="circle968" />
      <path
         inkscape:export-ydpi="300"
         inkscape:export-xdpi="300"
         d="m 82.451424,95.397592 -4.210669,0.420847 a 5.218781,5.218781 0 0 1 -5.583058,-3.927927 l -0.518721,-2.072715 a 6.9101677,6.9101677 0 0 0 2.482694,-1.466983 z"
         style="fill:#cccccc;stroke-width:0.264583"
         id="path970" />
      <polygon
         inkscape:export-ydpi="300"
         inkscape:export-xdpi="300"
         transform="matrix(0.10874658,0,0,0.10874658,47.652517,59.728711)"
         points="320,400 259.556,388 320,456 "
         style="fill:#cccccc;stroke-width:2.43302"
         id="polygon972" />
      <path
         inkscape:export-ydpi="300"
         inkscape:export-xdpi="300"
         d="m 60.768443,103.33283 -4.416199,9.46421 a 27.98718,27.98718 0 0 0 0.05437,-7.52308 q -0.137036,-1.06191 -0.353426,-2.10861 A 27.766842,27.766842 0 0 0 55.14732,99.833364 q -0.318076,-0.941202 -0.704678,-1.859577 a 27.988652,27.988652 0 0 0 -4.141064,-6.878223 l -0.03914,-0.04784 8.959631,6.399737 a 4.7611123,4.7611123 0 0 1 1.546376,5.885369 z"
         style="fill:#cccccc;stroke-width:0.264583"
         id="path974" />
      <path
         inkscape:export-ydpi="300"
         inkscape:export-xdpi="300"
         inkscape:transform-center-y="-1.7038433"
         inkscape:transform-center-x="1.3697564"
         style="fill:#0d2c47;fill-opacity:1;stroke-width:0.264583"
         d="m 64.616984,70.168382 a 2.1749316,2.1749316 0 1 0 -2.174931,-2.17493 2.1774241,2.1774241 0 0 0 2.174931,2.17493 z m 0,-2.609917 a 0.43498632,0.43498632 0 1 1 -0.434986,0.434987 0.43548438,0.43548438 0 0 1 0.434986,-0.434987 z"
         id="path976" />
      <path
         inkscape:export-ydpi="300"
         inkscape:export-xdpi="300"
         style="fill:#0d2c47;fill-opacity:1;stroke-width:0.264583"
         d="m 65.051971,80.608054 a 8.7095582,8.7095582 0 0 0 8.699726,-8.699724 h -1.739945 a 6.967687,6.967687 0 0 1 -6.959781,6.95978 z"
         id="path978" />
      <path
         inkscape:export-ydpi="300"
         inkscape:export-xdpi="300"
         sodipodi:nodetypes="cccccccccccccacccccacc"
         style="fill:#0d2c47;fill-opacity:1;stroke-width:0.264583"
         d="m 75.873637,88.307132 c 0.545181,-0.64426 0.982723,-1.372345 1.295716,-2.156134 l -1.615481,-0.646216 c -0.912182,2.302145 -3.140849,3.81104 -5.617114,3.803 h -0.534924 v 1.739944 h 0.534924 c 0.528498,-1.39e-4 1.055642,-0.05342 1.573479,-0.159028 l 0.303249,1.213041 c 0.690841,2.705654 3.260623,4.409984 6.053064,4.420202 0.198058,0 0.397871,-0.0098 0.598161,-0.02984 L 83.54777,96.22443 c 0.751743,-0.07514 1.056988,-1.006939 0.495416,-1.51231 0,0 -3.368245,-2.003089 -4.891126,-3.225883 -1.186958,-0.95306 -3.278423,-3.179106 -3.278423,-3.179105 z m 2.342441,6.769445 c -2.145622,0.204465 -4.182109,-1.308334 -4.714583,-3.396868 l -0.332112,-1.328428 c 0.506889,-0.229923 1.28952,-0.706219 1.652948,-1.080654 0,0 1.593925,1.918249 2.53958,2.721586 1.391366,1.181964 4.555762,3.039983 4.555762,3.039983 z"
         id="path980" />
      <path
         inkscape:export-ydpi="300"
         inkscape:export-xdpi="300"
         sodipodi:nodetypes="ccacccsccccccccccccccccccccccccsccccccccccscccccccscccccccccccccccccccccccscccsccccccccccccccccccsccccccccccccacc"
         style="fill:#0d2c47;fill-opacity:1;stroke-width:0.264583"
         d="m 101.78106,81.806907 c -0.0109,-0.03831 0.033,-0.239862 -0.90456,-0.648481 0,0 -3.648345,-1.289533 -5.501855,-1.8415 C 93.37823,78.722403 89.328948,77.735279 89.328948,77.735279 82.642038,67.932988 69.783434,61.80194 57.10885,61.509437 l -3.329938,-0.0046 h -0.0012 c -0.480028,-2.8e-5 -0.869356,0.388777 -0.869973,0.868805 l -0.0053,4.039659 c -0.01576,10.94252 4.429832,21.418628 12.310639,29.010193 l -3.515069,0.793748 -11.023066,-5.9355 c -0.838784,-0.451627 -1.688992,0.579389 -1.085873,1.3168 l 0.03892,0.04763 c 4.803181,5.883959 6.928808,13.507508 5.863072,21.027858 -0.131202,0.91711 1.071308,1.37655 1.585055,0.6056 l 6.70151,-10.05226 h 0.665196 l 2.324751,6.38737 c 0.160482,0.4422 0.643663,0.67645 1.090227,0.52855 l 7.800535,-2.57491 4.065851,-0.01 2.077018,2.33665 c 0.531474,0.59787 1.520193,0.22196 1.520222,-0.57799 v -1.76737 l 3.606528,-0.009 v -3e-5 c 6.17364,-0.008 11.17601,-5.01146 11.183006,-11.185101 V 95.48928 c -0.0012,-1.873366 -0.472346,-3.716502 -1.370031,-5.360784 -0.141774,-2.97372 1.161385,-5.285421 3.63639,-6.939952 l 0.97176,-0.491869 c 0.38145,-0.193072 0.50885,-0.495104 0.43201,-0.890151 z M 54.658389,67.795688 c 2.201948,0.75587 3.961851,2.931509 4.782277,5.683764 l 1.722422,-0.24606 c -1.157125,-3.830075 -3.363361,-5.968148 -6.519832,-7.259594 l -0.06541,-2.727813 2.528571,0.0034 c 6.775677,0.01159 13.428464,1.809917 19.287225,5.213569 0.875652,0.509099 1.728503,1.051496 2.558544,1.62719 -0.414653,8.748124 -7.661198,15.737748 -16.510125,15.737748 h -2.573103 c -0.01072,-0.01841 -0.02182,-0.03658 -0.03252,-0.05501 -3.216952,-5.084564 -5.307519,-12.146871 -5.178046,-17.977205 z m 2.512698,36.713092 3.174063,-3.17406 c -0.0016,0.5635 -0.126102,1.11988 -0.36471,1.63037 l -2.485335,5.32571 c -0.02509,-1.26641 -0.133332,-2.5298 -0.324022,-3.78202 z m -0.39206,-2.06854 c -0.18951,-0.83336 -0.415489,-1.65712 -0.677941,-2.47128 l 2.755569,0.39365 z m -1.345209,-4.324186 c -0.480543,-1.204569 -1.041523,-2.375469 -1.679146,-3.504778 l 4.961961,3.544268 c 0.211119,0.151055 0.406595,0.322853 0.583503,0.512831 z m 10.951413,5.360796 c 0.72488,0.20546 1.408288,0.53598 2.019397,0.97667 l -1.551037,0.3102 z m 1.070341,2.94089 2.62691,-0.52538 c 0.577734,0.43448 1.209429,0.79211 1.87925,1.06393 l -3.847866,1.27016 z m 7.635121,-0.58796 h -0.01545 c -1.734478,-0.005 -3.397113,-0.6933 -4.626986,-1.91635 -1.549942,-1.55845 -3.658953,-2.43203 -5.856917,-2.42603 h -1.279312 c -0.290878,-10e-6 -0.562508,0.14538 -0.723845,0.38741 l -0.768115,1.15217 c 0.586211,-1.846 0.183023,-3.863707 -1.067597,-5.342668 l 0.407137,0.219233 c 0.184809,0.09951 0.399364,0.128856 0.604106,0.08262 l 5.013847,-1.132179 c 1.986338,1.723076 4.136978,3.247064 6.421,4.550044 l 2.139382,1.21997 2.842915,3.19829 z m 6.490757,1.19918 -3.568407,-4.01443 3.568407,0.89206 z M 96.370988,96.355921 c 4.11e-4,6.727029 -6.832001,11.297929 -13.04959,8.729969 v -1.85854 c -1.6e-5,-0.3992 -0.27169,-0.74716 -0.658957,-0.84401 l -6.959783,-1.73995 c -0.113731,-0.0276 -0.231886,-0.0319 -0.347308,-0.0125 L 74.060468,99.892508 C 68.777324,96.87721 64.28325,92.653771 60.946043,87.567838 h 1.49601 c 9.398216,0 17.160537,-7.133551 18.159564,-16.270241 4.001666,3.097841 7.353865,6.953656 9.865141,11.347225 l 4.660758,8.160511 c 0.8142,1.426984 1.242753,3.041405 1.243472,4.68433 z m 0.573681,-12.641086 -1.831065,-1.220706 -0.965128,1.447691 1.896523,1.264334 c -0.358438,0.726663 -0.62943,1.493268 -0.807303,2.283761 l -3.260059,-5.708051 c -0.105535,-0.184782 -1.173748,-1.796655 -1.282247,-1.97951 0,0 2.948821,0.661168 4.393865,1.098159 1.287672,0.3894 3.8015,1.35507 3.8015,1.35507 -0.554889,0.492094 -1.510773,0.858786 -1.946086,1.459252 z"
         id="path982" />
    </g>
  </g>
</svg>
